<svg width="25" height="25" viewBox="0 0 25 25" fill="none" xmlns="http://www.w3.org/2000/svg">
<g id="&#195;&#173;cones">
<path id="Vector" d="M6.8667 10.6448C5.7667 10.6448 4.8667 11.5448 4.8667 12.6448C4.8667 13.7448 5.7667 14.6448 6.8667 14.6448C7.9667 14.6448 8.8667 13.7448 8.8667 12.6448C8.8667 11.5448 7.9667 10.6448 6.8667 10.6448ZM18.8667 10.6448C17.7667 10.6448 16.8667 11.5448 16.8667 12.6448C16.8667 13.7448 17.7667 14.6448 18.8667 14.6448C19.9667 14.6448 20.8667 13.7448 20.8667 12.6448C20.8667 11.5448 19.9667 10.6448 18.8667 10.6448ZM12.8667 10.6448C11.7667 10.6448 10.8667 11.5448 10.8667 12.6448C10.8667 13.7448 11.7667 14.6448 12.8667 14.6448C13.9667 14.6448 14.8667 13.7448 14.8667 12.6448C14.8667 11.5448 13.9667 10.6448 12.8667 10.6448Z" fill="black"/>
</g>
</svg>
