<svg width="24" height="25" viewBox="0 0 24 25" fill="none" xmlns="http://www.w3.org/2000/svg">
<g id="&#195;&#173;cones">
<path id="Vector" d="M15.755 14.4664H14.965L14.685 14.1964C15.665 13.0564 16.255 11.5764 16.255 9.96637C16.255 6.37637 13.345 3.46637 9.755 3.46637C6.165 3.46637 3.255 6.37637 3.255 9.96637C3.255 13.5564 6.165 16.4664 9.755 16.4664C11.365 16.4664 12.845 15.8764 13.985 14.8964L14.255 15.1764V15.9664L19.255 20.9564L20.745 19.4664L15.755 14.4664ZM9.755 14.4664C7.26501 14.4664 5.255 12.4564 5.255 9.96637C5.255 7.47637 7.26501 5.46637 9.755 5.46637C12.245 5.46637 14.255 7.47637 14.255 9.96637C14.255 12.4564 12.245 14.4664 9.755 14.4664Z" fill="#136CDC"/>
</g>
</svg>
